<svg xmlns="http://www.w3.org/2000/svg" width="239.304" height="190.335" viewBox="0 0 239.304 190.335"><path fill="#142138" fill-rule="evenodd"/><path fill="#142138" fill-rule="evenodd"/><path fill="#142138" fill-rule="evenodd"/><path fill="#142138" fill-rule="evenodd"/><path d="M142.8.148C116.353,1.409,90.255,10.494,66.873,26.575,38.151,46.33,18.281,72.6,11.113,100.287c-5.3,20.487-1.525,44.167,12.022,75.356l1.041,2.4-1.961-1.982c-4.476-4.524-9.193-8.283-16.679-13.292C3,161.069,2.545,160.845,1.93,161c-1.484.37-2.412,3.39-1.574,5.121.212.439.539.69,3.413,2.624C14.99,176.3,20.836,181.6,25.124,188.14c.851,1.3,1.7,1.739,2.505,1.308.164-.088.221-.067.273.1.691,2.177,3.7-.349,3.716-3.122,0-.229.053-.416.114-.416s.111-.237.111-.526c0-3.029,4.635-19.917,7.3-26.587a5.245,5.245,0,0,0,.626-2.443c.019-2.475-2.256-3.642-3.623-1.858-.876,1.143-3.4,8.673-5.419,16.167-1.763,6.543-1.61,6.082-1.837,5.517-.067-.168-.707-1.652-1.422-3.3C14.71,143.587,11.075,120.7,15.774,99.4,20.922,76.057,39.9,52.126,70.214,30.734,93.847,14.059,119.086,5.753,146.123,5.753c32.715,0,62.991,12.577,86.776,36.046,3.286,3.242,3.309,3.261,3.991,3.261,1.553,0,2.826-2.478,2.315-4.506-.364-1.445-9.218-9.715-15.967-14.914A121.407,121.407,0,0,0,155.937.254C153.63.1,145.28.03,142.8.148" transform="translate(-0.016 -0.035)" fill="#142138" fill-rule="evenodd"/><path fill="#142138" fill-rule="evenodd"/><path fill="#142138" fill-rule="evenodd"/><path fill="#142138" fill-rule="evenodd"/><path fill="#142138" fill-rule="evenodd"/></svg>