<svg xmlns="http://www.w3.org/2000/svg" width="183.712" height="283.562" viewBox="0 0 183.712 283.562"><g transform="translate(0.088 0.152)"><path d="M85.507.1A159.855,159.855,0,0,0,33.458,12.074c-3.748,1.563-11.27,5.2-11.658,5.64a.76.76,0,0,1-.341.156,13.932,13.932,0,0,0-1.744,1.013c-.822.528-1.715,1.072-1.984,1.209C11.81,23.108,4.723,32.945,2.973,40.578a3.217,3.217,0,0,1-.906,1.875C.976,43.512.721,45.376.56,53.435c-.185,9.289.8,18.826,2.118,20.463a6.033,6.033,0,0,1,.845,1.755c1.724,5.982,7.819,12.8,15.588,17.432a23.9,23.9,0,0,1,2.027,1.3c.784.784,6.273,3.492,10.514,5.189,24.063,9.623,59.5,10.88,96.175,3.411,10.072-2.051,27.557-7.379,27.966-8.521.033-.091.363-.219.734-.284a3.682,3.682,0,0,0,1.087-.376c.227-.142,1.755-.949,3.4-1.792a51.137,51.137,0,0,0,10.053-6.139C178.916,80.019,185,69.683,183,65.57l-.409-.845.51-13.584.51-13.585-.382-.964c-.21-.531-.6-1.708-.877-2.617-1.83-6.107-6.033-11.345-13.01-16.21-6.6-4.605-26.129-11.584-40.419-14.447C114.951.518,98.06-.732,85.507.1m21.94,7.239A163.786,163.786,0,0,1,140.4,13.5c6.029,1.834,14.275,4.765,14.953,5.315a9.912,9.912,0,0,0,1.3.619c10.9,4.574,16.736,9.747,19.2,17.018,1.846,5.458-1.648,12.463-8.922,17.888A20,20,0,0,0,165.03,55.9c-.238.259-.377.347-.308.2s0-.115-.163.081-.289.287-.289.2-.145-.027-.321.129a53.259,53.259,0,0,1-7.092,4.017c-12.484,6.161-31.534,10.952-52.439,13.19-1.969.211-4.365.472-5.324.581s-2.219.193-2.8.188c-.614-.006-1.056.07-1.056.181,0,.126-.465.147-1.377.062-.89-.084-1.377-.063-1.377.056s-3.66.186-10.832.188c-7.331,0-10.832-.059-10.832-.188s-.442-.146-1.285-.063-1.285.062-1.285-.067c0-.112-.369-.183-.872-.169-.48.013-2.235-.149-3.9-.361C43.344,71.566,30.809,67.2,18.8,58.577,12.376,53.962,8.628,46.86,9.938,41.788c2.3-8.909,8.6-14.884,22.388-21.242,1.935-.892,3.628-1.726,3.761-1.853a.825.825,0,0,1,.446-.231,18.1,18.1,0,0,0,2.053-.759A152.226,152.226,0,0,1,86.425,7.082c3.8-.242,16.96-.079,21.022.26M88.261,9.668a136.339,136.339,0,0,0-25.244,3.655c-5.763,1.414-14.585,4.17-14.749,4.608a.147.147,0,0,1-.226.063,4.5,4.5,0,0,0-1.5.532c-.734.348-2.491,1.13-3.905,1.736C31.478,25.047,28.273,27.1,25.32,31.376c-14.153,20.474,19.873,38.639,67.623,36.1C130.15,65.5,156.174,56.5,162.764,43.328c4.205-8.4-2.567-19.048-15.11-23.749-.606-.227-1.619-.658-2.252-.958a3.3,3.3,0,0,0-1.331-.433c-.1.062-.181.015-.181-.1s-.124-.167-.275-.108-.275.021-.275-.083-.077-.141-.171-.083a.208.208,0,0,1-.283-.076,20.547,20.547,0,0,0-3-1.117A145.15,145.15,0,0,0,88.261,9.668m12.209,6.96c4.829.219,10.448.755,14.6,1.392,1.666.256,3.339.512,3.718.569s.688.165.688.24.392.188.872.252c5.089.677,17.423,4.233,24.275,7,10.576,4.267,14.7,10.343,10.68,15.741-.761,1.022-.572,1.116-1.9-.96-3.862-6.022-9.679-8.771-29-13.7l-4.16-1.061.1-1.306c.193-2.552-1.534-3.379-8.769-4.2-7.01-.8-7.481-.731-10.118,1.406L99.92,23.238l-1.561-.14a60.409,60.409,0,0,0-13.491.6,2.8,2.8,0,0,1-2.044-.026C81.5,23.17,70.443,24.707,62.283,26.53c-14.52,3.243-28.8,9.579-32.37,14.358-.836,1.12-1.1.945-.818-.551a13.317,13.317,0,0,1,6.236-8.71A131.4,131.4,0,0,1,69.443,19.273a8.742,8.742,0,0,0,1.744-.448A65.681,65.681,0,0,1,78.9,17.557a121.936,121.936,0,0,1,21.572-.929m8.8,9.113,1.416.12-.667.648c-.433.421-.637.765-.58.982.048.184.012.334-.079.334-.222,0-.214.867.009,1a.318.318,0,0,1,.074.372c-.218.569,1.183,1.5,3.039,2.022,2.588.727,12.316,3.98,12.316,4.118a6.174,6.174,0,0,1-1.468.661,5.091,5.091,0,0,0-1.469.692c0,.083-.166.1-.368.034-.219-.069-.367-.033-.367.09s-.083.156-.184.093a.426.426,0,0,0-.4.022c-.318.2-1.065.2-1.065.008,0-.091-.165-.122-.367-.069s-.367.012-.367-.09-.118-.14-.263-.085-.29.038-.321-.04c-.139-.337-10.462-3.795-13-4.354-2.291-.5-7.677-.456-9.032.081-2.713,1.076-4.27,4.566-3,6.73.842,1.438,2.371,2.4,9.817,6.164,4.278,2.164,6.414,3.456,6.319,3.82a3.214,3.214,0,0,0,.6.848c3.256,3.819-1.225,5.521-14.375,5.459a48.661,48.661,0,0,0-6.393.151.2.2,0,0,1-.259.089,3.929,3.929,0,0,0-1.319.666c-6.447,4.171-6.8,4.288-11.485,3.832-2.975-.291-2.893-.188-1.379-1.727,3.689-3.749,3.284-6.131-1.158-6.794-4.342-.649-12.943-3.282-12.943-3.962a35.594,35.594,0,0,1,5.691-1.592c2.707-.554,3.445-.476,8.358.879,16.209,4.469,21.568,4.488,21.568.074,0-2.822-2.654-4.551-11-7.17-3.266-1.025-6.8-3.645-6.8-5.039,0-2,1.67-4.113,3.4-4.3a4.9,4.9,0,0,0,2.111-.734c2.129-1.289,11.271-1.98,15.486-1.171,1.672.321,2.5.2,3.216-.47,2.558-2.4,3.325-2.678,6.71-2.392M73.275,32.275c-1.342,2.6-.037,6.357,3.12,9,.619.518.993.892.831.831-6.2-2.319-10.433-2.239-18.446.348-7.548,2.437-8.392,5.655-2.421,9.23A45.357,45.357,0,0,0,68.082,56.03c.994.159.928.328-.8,2.031l-1.515,1.5L63.476,59.2A78.953,78.953,0,0,1,50.564,56.2a4.077,4.077,0,0,0-1.423-.374c-.093.058-.169.008-.169-.109s-.118-.168-.263-.113-.29.041-.321-.032a15.568,15.568,0,0,0-2.261-.942c-5.008-1.841-11.248-5.343-11.608-6.515q-1.091-3.556,12.618-9.283c1.262-.528,2.387-1.033,2.5-1.123,1.22-.971,12.284-3.975,19.9-5.4,4.23-.793,4.132-.792,3.74-.035m61.24,4.92a8.354,8.354,0,0,1,1.377.522,12.654,12.654,0,0,0,1.573.665c5.479,2.038,9.278,4.746,10.729,7.647l.668,1.336-.42.335c-2.048,1.63-11.113,5.194-17.626,6.93-1.543.412-2.954.831-3.134.931a.606.606,0,0,1-.493.082.21.21,0,0,0-.28.089.209.209,0,0,1-.278.09,9.1,9.1,0,0,0-2.053.383A113.066,113.066,0,0,1,113.23,58.4l-.643.1.862-.551c4.051-2.59,3.8-8.319-.566-13.077-1.09-1.186-1.294-1.31-6.951-4.213-5.969-3.062-6.667-3.473-5.887-3.464a27.886,27.886,0,0,1,4.322.515c.18.09,2.062.744,4.183,1.453s5.095,1.731,6.609,2.269c4.64,1.648,6.9,1.4,13.261-1.474a14.48,14.48,0,0,0,4.28-2.538l.635-.594,1.181.372m41.142,25.738-.233,6.659-.754,1.469a42.51,42.51,0,0,1-4.137,5.862,8.973,8.973,0,0,1-.278-2.425c-.316-6.39-.47-10.174-.473-11.634l0-1.588,1.974-1.562c1.086-.859,2.423-2.022,2.973-2.585a4.437,4.437,0,0,1,1.082-.939c.046.046-.021,3.08-.149,6.743M8.2,61.488c-.013,3.449-.242,3.654-.431.386-.064-1.107-.159-2.55-.21-3.206l-.093-1.193.373.433c.345.4.372.672.362,3.58m5.154,2.2c0,.218.207,3.95.458,8.292s.455,7.936.453,7.986A8.962,8.962,0,0,1,12.7,77.947l-.817-1.191V62.125l.734.582a1.694,1.694,0,0,1,.736.979m152.823,2.555c.061,1.338.195,4.25.3,6.472s.23,4.824.284,5.783l.1,1.744-.79.565c-1.126.806-6.089,3.782-7.426,4.454l-1.128.567-.113-1.783c-.254-4-.683-15.5-.582-15.6.06-.06,1.368-.7,2.907-1.428s3.542-1.742,4.451-2.26a20.01,20.01,0,0,1,1.771-.944,12.725,12.725,0,0,1,.23,2.429M20.561,68.29l1.239.749-.024,4.224c-.014,2.323-.076,6.143-.138,8.488l-.113,4.264-1.11-.776c-.61-.426-1.365-.982-1.679-1.235l-.569-.459-.392-7.16c-.215-3.938-.442-7.852-.505-8.7l-.114-1.538,1.083.7c.6.383,1.64,1.033,2.322,1.445M153.074,70.1c.034.448.727,16.552.728,16.954,0,.516-4.256,2.645-5.29,2.645a24.407,24.407,0,0,1-.291-3.993c-.069-2.2-.251-5.893-.405-8.216s-.295-4.5-.312-4.832l-.033-.609,2.662-.981c2.573-.948,2.933-1.067,2.941-.968m-124.3,2.394c1.666.751,3.979,1.712,5.141,2.136s2.347.869,2.636.989l.524.218-.108,1.836c-.059,1.01-.2,3.482-.324,5.494a46.127,46.127,0,0,0,.019,7.037c.19,2.731.19,3.42,0,3.594s-.2.158-.084-.045.07-.23-.157-.144c-.168.065-.306.038-.306-.061s-.062-.165-.138-.149a3.329,3.329,0,0,1-.872-.291c-.4-.176-1.519-.652-2.479-1.058-1.847-.781-6.727-3.179-7.114-3.495-.178-.145-.229-2.153-.229-8.905,0-6.9.048-8.7.229-8.62.126.054,1.593.712,3.259,1.463m114.932,1.186c0,.278.12,2.322.264,4.544s.32,6.032.391,8.469l.128,4.43-1.815.56c-1,.308-2.6.783-3.56,1.056a8.644,8.644,0,0,0-1.851.661c-1,1.555-1.495-7.465-.835-15.229.275-3.236.122-2.986,2.135-3.5.858-.221,2.3-.64,3.213-.93,2.063-.659,1.927-.655,1.93-.057M132.8,77.624a98.285,98.285,0,0,0,0,16.322l.106.67-2.036.477c-2.418.567-2.211.552-2.218.156,0-.177-.294-.528-.646-.78l-.641-.459.049-8.2c.028-4.51.1-8.25.16-8.311.108-.108,4.6-1.156,5.1-1.189.2-.013.227.248.13,1.315m-88.415.284c1.565.405,3.866.945,5.112,1.2s2.291.49,2.321.522-.016,2.827-.1,6.21-.106,7.5-.043,9.144l.113,2.994-.442-.1c-.243-.055-1.392-.308-2.553-.563S45.3,96.47,43.621,96l-3.055-.85-.137-3.968c-.252-7.313.1-14.243.723-14.1.212.049,1.665.42,3.23.825M123.924,96.24c.207.319-4.821,1.409-5.12,1.109-.071-.071-.238-2.71-.372-5.865s-.3-7.2-.381-8.995-.139-3.263-.139-3.268,1.281-.234,2.846-.509l2.846-.5.092,8.909c.05,4.9.153,9,.229,9.119m-9.381-9.115c.166,3.989.343,8.091.392,9.116l.09,1.864-.851.123c-.468.067-1.037.167-1.265.221l-.413.1V79.989l.5-.079c1.342-.212,1.205-.852,1.542,7.215m63.894-6.766c-1.58.783-1.753,1.3-1.92,5.743-.174,4.633-.28,5.8-.524,5.8a20.571,20.571,0,0,0-3.3,2.479c-6.58,5.617-22.88,13.761-34.954,17.465a4.237,4.237,0,0,0-1.159.468c-.032.072-.176.084-.321.029s-.263-.012-.263.1-.124.15-.275.092-.275-.017-.275.092-.116.153-.258.1a3.807,3.807,0,0,0-1.423.361c-4.365,1.722-17.847,4.258-27.878,5.246C82.8,120.6,50.411,118.194,36.874,113.2a5.681,5.681,0,0,0-1.687-.457c-.092.057-.168.007-.168-.11s-.124-.167-.275-.108-.275.017-.275-.092-.118-.152-.263-.1-.29.044-.321-.027a18.947,18.947,0,0,0-2.445-1.018c-9.4-3.505-19.756-10.381-22.858-15.173l-.772-1.193.111-2.754c.2-5.106-.969-7.1-4.029-6.846-3.01.25-4.64,4.323-3.633,9.079a26.4,26.4,0,0,1,.26,5.753c-.094,8.9,1,17.9,2.337,19.242a4.671,4.671,0,0,1,.651,1.413c1.317,4.265,5.212,9.6,9.906,13.568,3.862,3.264,10.621,7.172,17.125,9.9a120.948,120.948,0,0,0,24.311,6.659,3.365,3.365,0,0,1,1.1.254c.215.3,8.748,1.263,14.871,1.681,4.24.29,16.947.291,21.572,0,6.842-.427,17.154-1.423,17.35-1.675a18.646,18.646,0,0,1,2.662-.444c14.191-1.8,30.357-5.758,40.926-10.024a30.936,30.936,0,0,1,3.55-1.287,1.642,1.642,0,0,0,.8-.336c.241-.185,2.068-1.169,4.06-2.187a50.842,50.842,0,0,0,7.486-4.466c.151-.145.771-.627,1.377-1.073a49.593,49.593,0,0,0,4.74-4.041l1.252-1.208-.112,3.855c-.136,4.717-.208,5.364-.622,5.586-.175.094-1.389.977-2.7,1.962a113.389,113.389,0,0,1-17.892,10.792c-1.767.862-3.307,1.648-3.423,1.746s-.26.129-.321.068-.112-.01-.112.114-.083.174-.184.112-.184-.021-.184.092-.082.155-.182.093a3.249,3.249,0,0,0-1.331.523c-3.505,1.938-15.45,5.715-24.19,7.65-30.295,6.708-72.636,4.758-95.446-4.4-8.606-3.453-18.339-10.193-21.29-14.742l-.8-1.226.061-2.809c.114-5.256-.836-6.9-3.89-6.726-3.074.174-4.856,4.53-3.742,9.149.226.936.3,2.537.339,7.436.078,9.495.962,16.226,2.286,17.425a1.134,1.134,0,0,1,.386.6,13.757,13.757,0,0,0,.64,1.91,28.149,28.149,0,0,0,2.441,4.8c3.431,5.946,13.368,13.164,24.183,17.566,1.313.534,2.8,1.16,3.313,1.391,2.64,1.195,11.013,3.555,16.515,4.656,21.4,4.281,49.457,3.616,76.467-1.814,4.745-.954,11.869-2.658,12.2-2.917a22.792,22.792,0,0,1,2.563-.839c3.925-1.137,8.657-2.745,11.826-4.02,1.647-.662,3.279-1.258,3.628-1.323a1.516,1.516,0,0,0,.738-.288,24.108,24.108,0,0,1,2.614-1.443c7.768-3.944,12.684-7.435,15.854-11.258l.431-.519-.052.794c-.028.437-.121,2.566-.2,4.733a25.207,25.207,0,0,1-.321,3.994c-.092.031-1.158.808-2.367,1.728-2.495,1.9-7.673,5.382-10,6.732-.858.5-2.126,1.253-2.817,1.678-18.44,11.339-49.749,17.987-80.443,17.079-30.2-.893-49.921-5.676-63.983-15.517-2.7-1.887-7.312-6.392-8.148-7.953l-.53-.988.129-2.544a8.6,8.6,0,0,0-.575-4.7c-.847-2.473-4.508-2.741-6.057-.442A10.268,10.268,0,0,0,.23,181.423c.271,1.2.331,2.451.358,7.414.05,9.107.93,16.036,2.214,17.442a6.167,6.167,0,0,1,.825,1.836c1.781,6.047,7.979,12.845,15.962,17.508a11.029,11.029,0,0,1,1.842,1.213,81.835,81.835,0,0,0,8.721,4.384c24.3,10.17,60.2,11.629,97.764,3.972,10.528-2.147,24.425-6.385,27.921-8.517a2.677,2.677,0,0,1,1.108-.384,1.794,1.794,0,0,0,.918-.336c.241-.185,2.16-1.219,4.265-2.3a50.592,50.592,0,0,0,12.834-8.91l1.606-1.557-.012,1.273c-.034,3.682-.309,7.866-.521,7.937a46.02,46.02,0,0,0-4.386,3.321c-.131.162-.284.265-.341.227a2.538,2.538,0,0,0-.874.576c-6.764,5.654-24.125,13.646-37.564,17.291-1.362.37-2.6.722-2.752.783a1.143,1.143,0,0,1-.5.074.181.181,0,0,0-.229.167c0,.121-.151.156-.367.088s-.367-.036-.367.062-.165.135-.367.083-.368-.024-.368.063-.292.174-.649.193a5.913,5.913,0,0,0-1.422.318c-3.882,1.429-19.016,3.421-30.24,3.981-16.649.83-42.7-1.245-52.268-4.164a5.529,5.529,0,0,0-1.708-.351c-.1.062-.184.017-.184-.1s-.154-.176-.367-.12-.367.012-.367-.09-.138-.133-.307-.068-.354.048-.413-.036a10.32,10.32,0,0,0-3.352-.848c-.114.07-.158.049-.1-.048a6.03,6.03,0,0,0-2.037-.876c-11.265-3.674-23.27-11.34-26.113-16.674L7.8,225.141l.117-2.592c.221-4.913-1-6.935-4.027-6.684C.845,216.117-.874,220.585.3,225.2c.3,1.192.333,1.849.251,5.308-.184,7.736.918,17.751,2.121,19.266A9.3,9.3,0,0,1,3.7,251.9a28.029,28.029,0,0,0,7.817,11.2c.757.689,1.584,1.458,1.836,1.709,6.19,6.149,22.282,12.981,37.637,15.979,29.868,5.832,75.4,1.6,102.354-9.519,1.515-.625,3.043-1.2,3.4-1.274a4.7,4.7,0,0,0,1.357-.626,3.261,3.261,0,0,1,.907-.489,39.55,39.55,0,0,0,6.054-3.362c-.065-.1-.02-.126.1-.05.342.212,5.782-3.636,8.485-6,6.594-5.77,11.1-14.6,9.327-18.262l-.389-.8.294-7.563c.776-19.99.767-19.491.391-20.324a3.346,3.346,0,0,0-3.6-1.958c-1.064.126-1.053.164-.26-.94,2.755-3.835,4.529-9.692,3.571-11.788l-.378-.826.512-13.779.512-13.78-.505-.862a3.558,3.558,0,0,0-3.821-1.616l-.669.155,1.181-1.8c2.869-4.379,4.141-8.74,3.191-10.948l-.409-.95.506-13.37c.278-7.353.447-13.683.375-14.066a3.355,3.355,0,0,0-3.758-2.477l-1.038.075.981-1.466c2.942-4.4,4.369-9.271,3.337-11.4-.4-.823-.413-1-.3-3.645.422-9.8.869-22.967.811-23.918a3.419,3.419,0,0,0-5.072-2.8m-117.626.615c2.119.253,4.113.46,4.432.46h.58l.106,2.983c.059,1.641.145,5.823.192,9.294l.086,6.311L64.7,99.9c-1.662-.14-8.058-.977-8.71-1.141l-.413-.1V91.007c0-4.205.055-8.334.12-9.175l.119-1.53.568.106c.313.058,2.3.313,4.421.566m47.829,8.814v9.272H108c-.728,0-.713.047-.436-1.337.186-.929.17-1.1-.168-1.667-.353-.6-.381-1.035-.492-7.582-.065-3.821-.155-7.128-.2-7.348-.085-.417.149-.512,1.433-.582l.5-.028v9.272m-5.609-8.032c.159.95.223,17.61.068,17.765a40.231,40.231,0,0,1-5.441.551c-.039-.039-.389-3.732-.778-8.207s-.757-8.569-.82-9.1A4.1,4.1,0,0,1,96,81.786c.033-.008,1.505-.163,3.272-.345l3.426-.353c.118-.012.265.288.328.666M75.752,82.1l4.84.125L80.481,83.9c-.062.918-.165,5.076-.229,9.242l-.118,7.573H77.525c-1.434,0-3.727-.054-5.1-.119l-2.487-.119-.11-5.159c-.061-2.837-.138-7.047-.17-9.354l-.06-4.2.655.107c.36.059,2.833.163,5.5.232m16.548,0c0,.318,1.472,17.119,1.545,17.641.07.5.018.611-.317.686a77.417,77.417,0,0,1-9.533.2c-.33-.484-.053-15.45.331-17.863l.094-.591,2.425-.057c1.334-.031,3.107-.075,3.94-.1a4.81,4.81,0,0,1,1.515.082m83.359,25.9-.235,6.932-.73,1.419a24.756,24.756,0,0,1-3.468,4.882l-.846.935-.125-2.332c-.277-5.19-.468-10.17-.472-12.359l-.005-2.316,2.98-2.125A31.349,31.349,0,0,1,175.816,101c.044.044-.027,3.2-.157,7.011M8.2,107.848c-.014,2.332-.248,2-.426-.6-.111-1.619-.094-1.792.157-1.584.221.184.279.646.269,2.184m158.264,10.121c.108,2.272.247,4.874.308,5.783l.111,1.652-2.085,1.36a75.194,75.194,0,0,1-7.272,4.169c-.08-.08-.779-15.757-.783-17.557l0-1.38,2.8-1.416c1.54-.779,3.626-1.863,4.636-2.41l1.836-.994.128,3.331c.07,1.832.217,5.19.325,7.462m-153.5-8.292c.386.305,1.245,10.5,1.294,15.36,0,.234-.523-.415-1.56-1.926l-.817-1.191v-6.48c0-7.156-.088-6.687,1.082-5.763m5.213,3.176a4.086,4.086,0,0,1,.865.53,9.49,9.49,0,0,0,1.331.818l1.239.68v8.164c0,6.482-.047,8.136-.229,8.028a24.793,24.793,0,0,1-3.172-2.344c-.036-.112-.235-3.342-.442-7.179s-.423-7.452-.479-8.032c-.116-1.2-.142-1.186.888-.664m135.254,10.305c.2,4.722.369,8.854.369,9.182,0,.6,0,.6-2.669,1.674a24.9,24.9,0,0,1-2.727,1.007c-.032-.039-.157-2.714-.277-5.945s-.336-7.28-.48-9-.264-3.292-.267-3.5c0-.3.294-.5,1.509-1,.833-.341,2.093-.888,2.8-1.214,1.27-.586,1.286-.588,1.329-.192.024.22.21,4.264.413,8.986M27.675,117.6a84.344,84.344,0,0,0,8.336,2.769l1.073.241-.118,2.123c-.065,1.168-.211,3.61-.324,5.428a59.14,59.14,0,0,0,.146,9.226c.1,1.232.073,1.515-.136,1.515A58.469,58.469,0,0,1,28.5,135.42l-3.121-1.57-.048-8.6c-.038-6.86,0-8.585.184-8.511l2.159.864M143.8,120.834c.286,3.557.642,11.261.644,13.952v1.67l-3.075.932c-4.385,1.329-4.663,1.395-4.82,1.142-.564-.913-.359-18.386.22-18.809.115-.084,6.667-2.237,6.715-2.206.027.017.168,1.511.314,3.318m-11,1.587c-.448,5.811-.448,14.7,0,16.873.1.481.078.492-1.7.9-.99.225-1.9.448-2.029.5s-.286-.067-.358-.254a1.831,1.831,0,0,0-1.126-.977c-.306-.007-.246-16.94.06-17.244a45.721,45.721,0,0,1,5.121-1.476,4.127,4.127,0,0,1,.034,1.685m-89.264-.137c1.2.258,3.553.7,5.232.989l3.053.52L51.8,125.15c-.009.746-.05,5.091-.091,9.656-.074,8.187-.08,8.3-.443,8.224-1.536-.318-8.831-2.167-9.639-2.443l-1.01-.345-.148-2.462c-.319-5.31.08-16.213.588-16.056.162.05,1.276.3,2.474.56m80.2,9.638c.018,4.948.039,9.182.046,9.409.013.414-4.642,1.51-4.98,1.173-.1-.1-.6-10.476-.817-16.814l-.065-1.917,2.387-.4c1.313-.221,2.614-.411,2.892-.424l.5-.023.033,9m-62.638-6.966c1.868.194,3.7.353,4.064.354l.668,0,.108,4.269c.059,2.348.15,6.809.2,9.914l.1,5.646-.412,0c-.736,0-5.259-.541-7.711-.917-1.316-.2-2.422-.367-2.458-.367-.118,0-.068-15.5.056-17.525l.121-1.976.934.124c.515.069,2.463.283,4.331.477m53.133.218c.053.429.225,4.25.381,8.491s.33,8.136.385,8.656l.1.945-.974.124c-.536.068-1.119.165-1.3.215-.3.086-.321-.452-.321-9.456V124.6l.5-.076c1.12-.17,1.12-.17,1.221.649m-5.582,9.5v9.547H108c-.728,0-.713.045-.437-1.328a1.9,1.9,0,0,0-.178-1.729c-.352-.648-.924-15.268-.622-15.9a2.067,2.067,0,0,1,.973-.138h.907v9.547m-5.607-7.94c.155,1.59.228,17.788.08,17.935a45.649,45.649,0,0,1-5.462.553c-.037-.034-.382-3.682-.767-8.1s-.747-8.517-.8-9.1c-.083-.857-.051-1.056.17-1.056a1.166,1.166,0,0,0,.624-.351c.355-.355,1.563-.606,4.422-.919.757-.083,1.431-.162,1.5-.174a3.214,3.214,0,0,1,.241,1.215M77.2,126.023l3.446.116-.046.826c-.336,5.99-.413,8.469-.413,13.294v5.675l-4.841-.117c-2.663-.065-4.966-.166-5.12-.225-.293-.112-.343-1.405-.582-15.018l-.086-4.929,2.1.131c1.154.072,3.649.184,5.544.247m15.1.721c0,.709,1.391,17.092,1.541,18.147.107.756.078.761-5.325.918-3.624.1-4.354.083-4.492-.134-.353-.557-.136-13.843.3-18.293l.112-1.143,3.612-.054c1.987-.029,3.756-.073,3.933-.1.257-.034.321.1.321.655m83.538,18.627c.016,5.743-.447,13.125-.877,14a26.083,26.083,0,0,1-3.488,5.047l-1.094,1.189-.126-2.384c-.324-6.13-.47-9.929-.472-12.206l0-2.479,1.054-.688c.58-.378,1.88-1.3,2.89-2.049,2.212-1.64,2.111-1.62,2.114-.43M8.2,151.452c-.014,2.45-.251,2.115-.423-.6-.107-1.69-.09-1.88.157-1.676.219.182.276.663.267,2.274m158.366,11.729c.3,5.463.3,5.464-.084,5.946-.208.265-.379.414-.379.331s-.227.059-.5.316c-1.041.962-7.826,4.919-8.05,4.695-.1-.1-.8-15.51-.806-17.588l0-1.2,2.249-1.128a63.927,63.927,0,0,0,6-3.306,1.824,1.824,0,0,1,.563-.342l.459-.2.129,3.507c.071,1.929.263,5.966.425,8.971m-153.777-10,.616.515.328,5.773c.18,3.176.379,6.513.442,7.417l.114,1.643-.389-.352a11.968,11.968,0,0,1-1.2-1.577l-.814-1.225v-6.355c0-3.5.065-6.355.145-6.355a2.888,2.888,0,0,1,.761.515m8.821,13.39,0,8.3-1.74-1.237c-1.608-1.143-1.74-1.283-1.744-1.861-.007-.9-.709-13.3-.83-14.66l-.1-1.147,2.2,1.147,2.2,1.147,0,8.3m131.837.388c.216,5.085.322,9.315.236,9.4a56.715,56.715,0,0,1-5.3,2.152c-.022-.028-.137-2.694-.257-5.926s-.336-7.28-.48-9-.264-3.3-.267-3.513c0-.307.223-.484,1.05-.817.581-.234,1.841-.778,2.8-1.21,1.142-.514,1.758-.707,1.784-.56.022.123.215,4.384.431,9.468M27.13,160.853c1.754.741,7.467,2.661,8.967,3.014l.986.232-.111,1.95c-.061,1.073-.209,3.676-.328,5.786a47.5,47.5,0,0,0,.015,7.127,26.75,26.75,0,0,1,.125,3.4c-.186.186-5.257-1.931-8.391-3.5l-3.013-1.512-.048-8.574c-.026-4.716.017-8.574.1-8.574a16.875,16.875,0,0,1,1.7.657m116.476,1.041c.456,4.059,1.01,17.663.729,17.941a33.148,33.148,0,0,1-3.474,1.159c-4.433,1.329-4.251,1.292-4.407.91-.431-1.051-.276-14.52.206-17.969l.106-.758,3.241-1.1c1.783-.6,3.3-1.111,3.366-1.124s.173.411.233.941m-10.806,3.9c-.448,5.515-.451,13.99-.007,16.812l.1.651-2.075.463c-1.785.4-2.085.425-2.141.188-.082-.345-.371-.638-.918-.93l-.425-.228.061-8.507c.034-4.679.105-8.551.158-8.6.113-.113,4.74-1.37,5.115-1.389.207-.011.231.275.129,1.544m-87.591.267c2.02.4,4.362.828,5.205.954l1.533.23-.126,2.49c-.069,1.37-.138,5.7-.152,9.621l-.027,7.131-.739-.114c-1.124-.173-7.266-1.707-8.9-2.221l-1.442-.455-.138-3.625c-.271-7.112.114-15,.723-14.839.212.057,2.037.431,4.057.829m78.487,9.181c0,5.147.073,9.177.172,9.437l.172.453-2.578.488a15.959,15.959,0,0,1-2.684.383c-.083-.083-.961-18.684-.885-18.754.016-.014,5.09-.884,5.665-.971.076-.011.138,4.022.138,8.964m-61.11-6.682c1.752.165,3.208.322,3.235.348.071.07.4,19.63.336,19.7a12.885,12.885,0,0,1-1.761-.135,9.478,9.478,0,0,0-2.054-.081.724.724,0,0,1-.61-.1,1.031,1.031,0,0,0-.8-.1c-.313.069-.591.037-.661-.076s-.323-.144-.571-.082a.929.929,0,0,1-.677-.062,8.009,8.009,0,0,0-1.834-.407l-1.606-.231v-7.738c0-4.256.053-8.651.118-9.768l.117-2.03,1.791.231c.985.127,3.225.366,4.977.531m51.58-.6c.1.271.822,18.622.739,18.714a4.471,4.471,0,0,1-1.26.253l-1.147.128V168.116l.413-.08a3.819,3.819,0,0,1,1.256-.084m-5.524,10.032c0,10.318.055,9.75-.944,9.75-.332,0-.351-.076-.218-.872.214-1.28.162-2.015-.166-2.383-.251-.28-.308-1.3-.406-7.3-.063-3.837-.157-7.323-.209-7.746l-.1-.77.882-.069c.485-.038.944-.084,1.019-.1s.138,4.254.138,9.494m-31.614-8.511,3.727.138-.106.938c-.275,2.441-.462,7.721-.463,13.129l0,5.949-4.177-.128c-2.3-.07-4.6-.175-5.12-.234l-.944-.107-.11-5.439c-.061-2.991-.151-7.5-.2-10.029l-.092-4.59,1.88.118c1.034.065,3.558.18,5.608.256m25.992.866c.4,5.295.262,18.226-.193,18.051a17.345,17.345,0,0,0-2.627.12,12.742,12.742,0,0,1-2.5.091c-.241-.241-1.706-17.845-1.492-17.922a2.378,2.378,0,0,0,.591-.493c.47-.508.772-.589,3.33-.9,3.091-.374,2.776-.488,2.893,1.05m-10.712.092c0,.48.365,4.879.805,9.776s.783,8.924.762,8.948c-.07.08-6.605.408-8.208.412-1.28,0-1.608-.052-1.7-.287-.308-.8-.049-14.189.357-18.386l.111-1.143,2.877-.056c1.583-.03,3.352-.074,3.933-.1l1.056-.041.006.872m83.364,24.55-.224,6.8-.637,1.285a36.021,36.021,0,0,1-3.911,5.662l-.519.522-.126-2.45c-.314-6.13-.469-10.156-.472-12.293l0-2.317.78-.509a37.559,37.559,0,0,0,3.556-2.6c.427-.51,1.633-1.281,1.705-1.091.041.108-.026,3.256-.149,6.995M8.16,194.819c.045,2.36-.2,2.067-.377-.443-.091-1.326-.066-1.7.111-1.637.161.053.24.672.266,2.081m158.407,11.9a56.65,56.65,0,0,1,.146,5.8,14.93,14.93,0,0,1-1.776,1.293,17.491,17.491,0,0,0-1.626.981,46.908,46.908,0,0,1-5.771,3.184c-.087-.087-.792-15.576-.8-17.506l0-1.316,3.351-1.739c1.843-.957,3.929-2.06,4.636-2.452l1.285-.714.129,3.4c.071,1.87.262,5.953.425,9.072M13.43,197.741c.053.4.223,3.213.378,6.242s.325,6.127.379,6.885l.1,1.377-.481-.551a19.576,19.576,0,0,1-1.2-1.635l-.717-1.084V196l.724.5a1.482,1.482,0,0,1,.82,1.237m8.186,12.253c0,4.52-.044,8.218-.1,8.218a17.5,17.5,0,0,1-1.593-1.1c-.822-.6-1.553-1.12-1.624-1.147s-.305-3.355-.52-7.394-.436-7.745-.49-8.234l-.1-.89,2.212,1.164,2.212,1.164v8.218m131.452-8.627c0,.328.172,4.589.385,9.468s.34,8.918.284,8.974-1.282.581-2.725,1.166l-2.624,1.065-.222-5.632c-.122-3.1-.349-7.22-.5-9.161-.355-4.421-.373-4.077.222-4.29.278-.1,1.5-.627,2.708-1.174,2.627-1.184,2.479-1.159,2.477-.417m-120.17,5c1.419.445,2.93.9,3.359,1.012.93.242.877-.464.479,6.332a54.825,54.825,0,0,0-.071,8.606c.169,2.54.176,3.512.026,3.663s-.2.138-.2-.047c0-.138-.054-.2-.121-.13s-.211.046-.321-.044a25.813,25.813,0,0,0-2.4-1.043c-1.212-.482-3.587-1.572-5.278-2.423l-3.075-1.545V203.563l2.516,1c1.384.548,3.676,1.36,5.095,1.8m110.693-1.141c.2,1.423.649,9.344.777,13.756l.125,4.346-2.367.739c-1.3.406-3.028.924-3.836,1.152a6.692,6.692,0,0,0-1.581.576c-.658.956-.66-15.387,0-18.6.116-.569.184-.6,3.238-1.637,3.817-1.293,3.514-1.265,3.647-.329M132.8,209.353a95.23,95.23,0,0,0-.256,12.347c.108,2.272.207,4.371.219,4.664.022.528,0,.537-1.814.96-2.177.506-2.295.515-2.295.167,0-.147-.289-.5-.643-.78l-.643-.513v-7.087c0-8.767.073-9.861.669-10.011.237-.059.377-.195.311-.3s-.03-.138.091-.063a11.907,11.907,0,0,0,3.427-.813,1.877,1.877,0,0,1,.551-.229c.2-.05.4-.1.44-.112a10.792,10.792,0,0,1-.058,1.769m-89.62-.045c1.171.253,3.59.71,5.375,1.015s3.264.573,3.287.6-.031,3.057-.12,6.742-.111,8-.049,9.591c.084,2.144.058,2.892-.1,2.892-.461,0-6.486-1.464-8.683-2.11l-2.321-.683-.137-3.79c-.193-5.338.111-14.714.478-14.714.078,0,1.1.207,2.272.46m80.517,9.5c0,4.873.073,9.115.163,9.428l.163.568-2.6.47a22.3,22.3,0,0,1-2.671.4c-.067-.066-.912-18.656-.852-18.749.03-.047,5.022-.91,5.472-.946.3-.024.321.509.321,8.834M60.2,211.966c1.886.2,3.828.372,4.314.374,1.452,0,1.336-.767,1.524,10.1.093,5.391.153,9.81.132,9.821-.118.063-5.413-.547-7.748-.894l-2.754-.408-.057-6.972c-.032-3.834,0-8.236.066-9.781l.123-2.81.485.1c.267.054,2.029.265,3.915.469m54.389,8.541c.162,4.241.336,8.176.39,8.745.108,1.16.177,1.1-1.617,1.36l-.873.126.047-9.522.048-9.522.734-.092c.968-.121.914-.492,1.271,8.9m-5.953,1.173v9.526l-.6.091c-.783.119-.768.154-.5-1.249.214-1.135.2-1.251-.143-1.721s-.379-.856-.491-7.65c-.064-3.93-.158-7.409-.207-7.73-.1-.623.027-.689,1.437-.766l.5-.028v9.526m-32.68-8.6c2.575.111,4.69.215,4.7.232s-.051.857-.138,1.867-.21,5.459-.274,9.888l-.117,8.052-2.958-.114c-1.627-.063-3.92-.163-5.095-.223l-2.137-.108-.108-5.168c-.059-2.842-.147-7.343-.2-10l-.087-4.835.863.106c.475.058,2.97.2,5.545.307m27.059.767c.169,1.942.274,13.5.144,15.835l-.123,2.2-2.631.246a18.474,18.474,0,0,1-2.731.146c-.195-.195-1.671-18.016-1.5-18.08a4.093,4.093,0,0,0,.68-.492c.507-.426,3.234-.934,5.293-.986l.766-.019.1,1.147m-10.563,2.2c.124,1.543.5,5.9.834,9.691s.6,6.9.589,6.914a78.953,78.953,0,0,1-9.864.217c-.35-.552-.129-13.967.3-18.422l.107-1.1,3.9-.052,3.9-.052.226,2.806m83.2,22.5-.235,6.932-.753,1.462a27.92,27.92,0,0,1-3.57,5.041l-.718.811-.127-2.372c-.28-5.233-.47-10.2-.474-12.41l-.005-2.327,1.974-1.376c1.086-.757,2.428-1.707,2.983-2.11a4.007,4.007,0,0,1,1.085-.658c.042.042-.03,3.2-.16,7.008M8.2,238.384c-.014,2.332-.248,2-.426-.6-.111-1.619-.094-1.792.157-1.584.221.184.279.646.269,2.184M166.467,248.5c.108,2.272.243,4.874.3,5.783l.1,1.652-.885.608c-2.707,1.858-8.5,5.175-8.509,4.87,0-.084-.165-3.706-.364-8.048s-.362-8.561-.364-9.375l0-1.481,1.141-.538c1.04-.491,4.6-2.346,7.121-3.713l1.01-.547.128,3.329c.07,1.831.217,5.188.325,7.46M13.432,241.226c.052.419.223,3.281.381,6.361s.331,6.178.386,6.885l.1,1.285-.389-.459c-.214-.252-.757-1-1.207-1.651l-.817-1.191V239.5l.726.48a1.4,1.4,0,0,1,.82,1.242m6.578,3.148,1.606.856v8.258c0,6.555-.047,8.23-.229,8.124-1.721-1-3.259-2.345-3.259-2.856,0-.581-.656-12.374-.807-14.505l-.087-1.225.585.246c.322.135,1.308.632,2.191,1.1m133.059.5c0,.328.172,4.582.384,9.452.388,8.919.361,9.91-.253,9.3a4.921,4.921,0,0,0-1.445.572,15.24,15.24,0,0,1-3.352,1.351c-.029-.035-.151-2.708-.271-5.939s-.336-7.28-.48-9-.264-3.3-.267-3.513c0-.3.216-.483.958-.789.53-.218,1.707-.761,2.616-1.2,2.009-.982,2.112-.993,2.11-.23m-126.122,3a95.353,95.353,0,0,0,9.059,3.031l1.079.237-.118,2.123c-.065,1.168-.211,3.61-.324,5.428a59.14,59.14,0,0,0,.146,9.226c.1,1.295.08,1.515-.162,1.515-.774,0-9.214-3.794-10.739-4.829l-.6-.4v-8.491c0-4.67.022-8.491.05-8.491s.751.3,1.606.656M143.8,251.37c.286,3.555.642,11.261.644,13.949v1.668l-2.433.754c-4.591,1.424-5.295,1.6-5.451,1.345-.573-.928-.379-18.449.209-18.822.123-.078,6.669-2.227,6.715-2.2.027.013.168,1.5.314,3.31m-11,1.587c-.448,5.81-.448,14.7,0,16.873.1.483.084.491-1.933.964-2.4.564-2.21.548-2.21.185,0-.331-.7-.978-1.07-.987-.306-.007-.246-16.94.06-17.244a45.726,45.726,0,0,1,5.121-1.476,4.127,4.127,0,0,1,.034,1.685m-84.047.859c1.645.284,3.022.548,3.061.588s0,3.128-.093,6.863-.113,8.056-.049,9.6l.115,2.811-.442-.1-2.553-.569c-1.161-.258-3.486-.852-5.168-1.321l-3.056-.852-.137-3.776c-.131-3.627-.028-9.941.216-13.245l.117-1.575,2.5.53c1.375.291,3.845.762,5.489,1.046m74.985,8.964c.029,5.125.011,9.371-.039,9.436a25.147,25.147,0,0,1-4.891.834c-.131-.131-.981-18.515-.862-18.657.073-.087,4.688-.873,5.333-.909l.407-.022.052,9.317M59.07,255.29c1.666.194,3.867.41,4.891.481l1.862.128.107,4.244c.059,2.334.148,6.795.2,9.913l.092,5.669-1.511-.127c-1.668-.14-8.063-.977-8.717-1.141l-.413-.1v-7.645c0-7.47.128-11.779.348-11.773.061,0,1.473.162,3.139.356m55.153.421c.053.429.224,4.209.379,8.4s.326,8.085.38,8.653l.1,1.034-.879.127c-.483.07-1.064.171-1.292.225l-.413.1v-19.11l.6-.074c.328-.04.695-.087.815-.1s.259.3.315.751m-5.582,9.5v9.547H108c-.728,0-.713.045-.437-1.328a1.9,1.9,0,0,0-.178-1.729c-.364-.67-.391-1.1-.529-8.234-.159-8.218-.213-7.8,1.007-7.8l.78,0v9.547m-5.464,1.224c.027,4.762-.006,8.714-.073,8.78a41.1,41.1,0,0,1-5.45.55c-.039-.039-.388-3.731-.774-8.2s-.75-8.567-.806-9.1c-.084-.783-.051-.964.174-.964a1.2,1.2,0,0,0,.637-.36c.341-.341,2.821-.8,5.24-.966l.734-.051.135.826c.075.454.157,4.723.184,9.486m-26.342-9.871c2.046.079,3.749.178,3.784.219a14.044,14.044,0,0,1-.093,1.911c-.086,1.01-.21,5.422-.275,9.8l-.118,7.969-4.961-.113a48.89,48.89,0,0,1-5.107-.259c-.08-.08-.191-3-.247-6.479s-.146-7.933-.2-9.888l-.1-3.555,1.8.123c.989.067,3.472.188,5.517.267m16.2,9.841c.4,4.746.77,8.855.818,9.132.07.406.009.521-.321.6a78.687,78.687,0,0,1-9.539.2c-.335-.478-.093-14.052.328-18.41l.111-1.144,3.887-.05,3.887-.05.05.551c.027.3.378,4.434.779,9.18" transform="translate(0 0)" fill="#142138" fill-rule="evenodd"/><path d="M177.118,162.577a1.515,1.515,0,0,0,.643,0c.177-.046.032-.084-.321-.084s-.5.038-.321.084m-27.906.184a1.517,1.517,0,0,0,.643,0c.177-.046.032-.084-.321-.084s-.5.038-.321.084m25.8,0a2,2,0,0,0,.734,0c.175-.046-.011-.082-.415-.08s-.548.039-.319.084m-23.133.184a2,2,0,0,0,.734,0c.175-.046-.011-.082-.415-.08s-.548.039-.319.084m20.193,0a2.6,2.6,0,0,0,.826,0c.227-.044.041-.079-.413-.079s-.64.036-.413.079" transform="translate(-80.732 -87.993)" fill="#142138" fill-rule="evenodd"/><path d="M177.118,162.577a1.515,1.515,0,0,0,.643,0c.177-.046.032-.084-.321-.084s-.5.038-.321.084m-27.906.184a1.517,1.517,0,0,0,.643,0c.177-.046.032-.084-.321-.084s-.5.038-.321.084m25.8,0a2,2,0,0,0,.734,0c.175-.046-.011-.082-.415-.08s-.548.039-.319.084m-23.133.184a2,2,0,0,0,.734,0c.175-.046-.011-.082-.415-.08s-.548.039-.319.084m20.193,0a2.6,2.6,0,0,0,.826,0c.227-.044.041-.079-.413-.079s-.64.036-.413.079" transform="translate(-80.732 -87.993)" fill="#142138" fill-rule="evenodd"/><path d="M177.118,162.577a1.515,1.515,0,0,0,.643,0c.177-.046.032-.084-.321-.084s-.5.038-.321.084m-27.906.184a1.517,1.517,0,0,0,.643,0c.177-.046.032-.084-.321-.084s-.5.038-.321.084m25.8,0a2,2,0,0,0,.734,0c.175-.046-.011-.082-.415-.08s-.548.039-.319.084m-23.133.184a2,2,0,0,0,.734,0c.175-.046-.011-.082-.415-.08s-.548.039-.319.084m20.193,0a2.6,2.6,0,0,0,.826,0c.227-.044.041-.079-.413-.079s-.64.036-.413.079" transform="translate(-80.732 -87.993)" fill="#142138" fill-rule="evenodd"/><path d="M177.118,162.577a1.515,1.515,0,0,0,.643,0c.177-.046.032-.084-.321-.084s-.5.038-.321.084m-27.906.184a1.517,1.517,0,0,0,.643,0c.177-.046.032-.084-.321-.084s-.5.038-.321.084m25.8,0a2,2,0,0,0,.734,0c.175-.046-.011-.082-.415-.08s-.548.039-.319.084m-23.133.184a2,2,0,0,0,.734,0c.175-.046-.011-.082-.415-.08s-.548.039-.319.084m20.193,0a2.6,2.6,0,0,0,.826,0c.227-.044.041-.079-.413-.079s-.64.036-.413.079" transform="translate(-80.732 -87.993)" fill="#142138" fill-rule="evenodd"/></g></svg>