<svg id="svg" version="1.1" xmlns="http://www.w3.org/2000/svg" xmlns:xlink="http://www.w3.org/1999/xlink" width="400" height="400" viewBox="0, 0, 400,400"><g id="svgg"><path id="path0" d="M223.000 25.786 C 222.340 26.100,221.484 26.264,221.098 26.151 C 220.697 26.033,220.300 26.195,220.172 26.528 C 220.039 26.874,219.634 27.029,219.174 26.909 C 218.748 26.798,218.400 26.908,218.400 27.153 C 218.400 27.399,218.124 27.600,217.786 27.600 C 217.213 27.600,216.462 28.163,214.277 30.230 C 212.259 32.139,210.400 35.104,210.400 36.412 C 210.400 36.845,210.256 37.200,210.080 37.200 C 209.686 37.200,209.787 46.509,210.200 48.300 C 210.365 49.015,210.657 49.600,210.850 49.600 C 211.043 49.600,211.200 49.960,211.200 50.400 C 211.200 50.840,211.380 51.200,211.600 51.200 C 211.820 51.200,212.000 51.470,212.000 51.800 C 212.000 52.130,213.460 53.795,215.244 55.500 C 217.029 57.205,220.134 60.277,222.144 62.327 C 224.155 64.377,227.836 68.067,230.324 70.527 C 232.812 72.987,236.682 76.856,238.924 79.126 C 241.166 81.395,244.856 85.085,247.126 87.326 C 249.395 89.566,253.085 93.258,255.326 95.530 C 257.566 97.801,261.442 101.671,263.938 104.130 C 266.434 106.588,270.124 110.277,272.138 112.327 C 274.152 114.377,277.836 118.067,280.324 120.527 C 282.812 122.987,286.682 126.856,288.924 129.126 C 291.166 131.395,294.856 135.085,297.126 137.326 C 299.395 139.566,303.085 143.258,305.326 145.530 C 307.566 147.801,311.442 151.671,313.938 154.130 C 316.434 156.588,320.124 160.274,322.138 162.320 C 327.401 167.667,333.300 173.542,338.481 178.600 L 342.989 183.000 177.614 183.100 C 68.164 183.167,12.104 183.336,11.840 183.600 C 11.620 183.820,10.936 184.000,10.320 184.000 C 9.704 184.000,9.200 184.180,9.200 184.400 C 9.200 184.620,8.880 184.800,8.488 184.800 C 8.097 184.800,7.517 185.160,7.200 185.600 C 6.883 186.040,6.375 186.400,6.072 186.400 C 5.380 186.400,2.000 189.939,2.000 190.664 C 2.000 190.959,1.864 191.200,1.698 191.200 C 0.193 191.200,-0.546 204.578,0.798 207.500 C 1.126 208.215,1.531 208.800,1.698 208.800 C 1.864 208.800,2.000 209.041,2.000 209.336 C 2.000 210.061,5.380 213.600,6.072 213.600 C 6.375 213.600,6.883 213.960,7.200 214.400 C 7.517 214.840,8.097 215.200,8.488 215.200 C 8.880 215.200,9.200 215.380,9.200 215.600 C 9.200 215.820,9.830 216.000,10.600 216.000 C 11.370 216.000,12.000 216.180,12.000 216.400 C 12.000 216.665,67.631 216.833,177.495 216.900 L 342.989 217.000 338.474 221.400 C 335.991 223.820,331.943 227.836,329.480 230.324 C 327.016 232.812,323.144 236.682,320.874 238.924 C 318.605 241.166,314.915 244.856,312.674 247.126 C 310.434 249.395,306.744 253.085,304.474 255.326 C 302.205 257.566,298.515 261.256,296.274 263.526 C 294.034 265.795,290.347 269.485,288.082 271.726 C 282.840 276.912,276.912 282.840,271.726 288.082 C 269.485 290.347,265.795 294.034,263.526 296.274 C 261.256 298.515,257.566 302.205,255.326 304.474 C 253.085 306.744,249.395 310.434,247.126 312.674 C 244.856 314.915,241.166 318.605,238.924 320.874 C 236.682 323.144,232.812 327.014,230.324 329.475 C 227.836 331.936,223.968 335.806,221.729 338.075 C 219.490 340.344,216.385 343.420,214.829 344.911 C 213.273 346.401,212.000 347.886,212.000 348.211 C 212.000 348.535,211.820 348.800,211.600 348.800 C 211.380 348.800,211.200 349.160,211.200 349.600 C 211.200 350.040,211.043 350.400,210.850 350.400 C 210.657 350.400,210.365 350.985,210.200 351.700 C 209.787 353.491,209.686 362.800,210.080 362.800 C 210.256 362.800,210.400 363.155,210.400 363.588 C 210.400 364.826,212.189 367.745,214.060 369.560 C 215.957 371.400,217.276 372.400,217.807 372.400 C 218.133 372.400,218.400 372.580,218.400 372.800 C 218.400 373.020,218.749 373.200,219.176 373.200 C 219.603 373.200,220.064 373.380,220.200 373.600 C 220.336 373.820,221.056 374.000,221.800 374.000 C 222.544 374.000,223.264 374.180,223.400 374.400 C 223.736 374.944,228.209 374.907,229.972 374.345 C 233.049 373.363,235.600 372.256,235.600 371.902 C 235.600 371.736,235.843 371.600,236.139 371.600 C 236.436 371.600,237.741 370.490,239.039 369.133 C 240.338 367.777,243.987 364.132,247.148 361.033 C 250.310 357.935,254.180 354.066,255.748 352.436 C 259.371 348.671,265.923 342.121,269.239 338.951 C 270.647 337.604,274.333 333.914,277.428 330.751 C 280.523 327.588,284.393 323.717,286.028 322.148 C 287.663 320.580,291.350 316.890,294.222 313.948 C 297.094 311.007,300.784 307.317,302.422 305.748 C 304.060 304.180,307.930 300.310,311.023 297.148 C 314.116 293.987,317.806 290.298,319.223 288.951 C 320.640 287.604,324.333 283.914,327.428 280.751 C 330.523 277.588,334.393 273.717,336.028 272.148 C 337.663 270.580,341.350 266.890,344.222 263.948 C 347.094 261.007,350.784 257.317,352.422 255.748 C 354.060 254.180,357.930 250.310,361.023 247.148 C 364.116 243.987,367.806 240.298,369.223 238.951 C 370.640 237.604,374.333 233.914,377.428 230.751 C 380.523 227.588,384.393 223.723,386.028 222.161 C 390.995 217.417,398.000 209.916,398.000 209.341 C 398.000 209.044,398.136 208.800,398.302 208.800 C 398.469 208.800,398.874 208.215,399.202 207.500 C 400.546 204.578,399.807 191.200,398.302 191.200 C 398.136 191.200,398.000 190.956,398.000 190.659 C 398.000 190.101,390.979 182.560,386.437 178.238 C 385.027 176.897,381.337 173.214,378.237 170.054 C 375.137 166.894,371.263 163.024,369.629 161.454 C 367.995 159.884,364.305 156.193,361.429 153.251 C 358.553 150.309,354.869 146.619,353.242 145.051 C 351.616 143.483,347.746 139.614,344.642 136.454 C 341.539 133.293,337.847 129.603,336.437 128.254 C 335.027 126.904,331.337 123.214,328.237 120.054 C 325.137 116.894,321.263 113.024,319.629 111.454 C 317.995 109.884,314.305 106.193,311.429 103.251 C 308.553 100.309,304.869 96.619,303.242 95.051 C 301.616 93.483,297.746 89.614,294.642 86.454 C 291.539 83.293,287.847 79.603,286.437 78.254 C 285.027 76.904,281.337 73.214,278.237 70.054 C 275.137 66.894,271.263 63.024,269.628 61.454 C 267.993 59.884,264.123 56.010,261.028 52.845 C 257.933 49.680,254.253 45.990,252.851 44.645 C 249.682 41.605,242.185 34.118,239.039 30.852 C 237.741 29.503,236.436 28.400,236.139 28.400 C 235.843 28.400,235.600 28.241,235.600 28.047 C 235.600 27.748,234.493 27.277,233.770 27.267 C 233.653 27.266,233.112 26.972,232.568 26.616 C 232.023 26.259,231.395 26.080,231.171 26.218 C 230.948 26.356,230.500 26.249,230.177 25.981 C 229.282 25.238,224.428 25.106,223.000 25.786 " stroke="none" fill="#2eb779" fill-rule="evenodd"></path><path id="path1" d="M209.709 42.400 C 209.709 43.390,209.787 43.795,209.882 43.300 C 209.978 42.805,209.978 41.995,209.882 41.500 C 209.787 41.005,209.709 41.410,209.709 42.400 M209.709 357.600 C 209.709 358.590,209.787 358.995,209.882 358.500 C 209.978 358.005,209.978 357.195,209.882 356.700 C 209.787 356.205,209.709 356.610,209.709 357.600 " stroke="none" fill="#2eb779" fill-rule="evenodd"></path><path id="path2" d="M209.709 42.400 C 209.709 43.390,209.787 43.795,209.882 43.300 C 209.978 42.805,209.978 41.995,209.882 41.500 C 209.787 41.005,209.709 41.410,209.709 42.400 M209.709 357.600 C 209.709 358.590,209.787 358.995,209.882 358.500 C 209.978 358.005,209.978 357.195,209.882 356.700 C 209.787 356.205,209.709 356.610,209.709 357.600 " stroke="none" fill="#2eb779" fill-rule="evenodd"></path><path id="path3" d="M209.709 42.400 C 209.709 43.390,209.787 43.795,209.882 43.300 C 209.978 42.805,209.978 41.995,209.882 41.500 C 209.787 41.005,209.709 41.410,209.709 42.400 M209.709 357.600 C 209.709 358.590,209.787 358.995,209.882 358.500 C 209.978 358.005,209.978 357.195,209.882 356.700 C 209.787 356.205,209.709 356.610,209.709 357.600 " stroke="none" fill="#2eb779" fill-rule="evenodd"></path><path id="path4" d="M209.709 42.400 C 209.709 43.390,209.787 43.795,209.882 43.300 C 209.978 42.805,209.978 41.995,209.882 41.500 C 209.787 41.005,209.709 41.410,209.709 42.400 M209.709 357.600 C 209.709 358.590,209.787 358.995,209.882 358.500 C 209.978 358.005,209.978 357.195,209.882 356.700 C 209.787 356.205,209.709 356.610,209.709 357.600 " stroke="none" fill="#2eb779" fill-rule="evenodd"></path></g></svg>