<svg id="svg" version="1.1" xmlns="http://www.w3.org/2000/svg" xmlns:xlink="http://www.w3.org/1999/xlink" width="400" height="400" viewBox="0, 0, 400,400"><g id="svgg"><path id="path0" d="M146.176 5.807 C 80.497 23.011,22.516 81.448,5.634 147.456 C -45.352 346.809,196.497 486.541,341.519 341.519 C 486.895 196.144,345.728 -46.464,146.176 5.807 M248.571 33.059 C 374.762 70.229,414.929 228.792,321.635 321.481 C 220.497 421.962,53.049 368.185,29.122 227.538 C 8.071 103.792,127.970 -2.464,248.571 33.059 M183.530 88.511 C 153.367 95.666,124.486 143.343,140.571 159.429 C 148.360 167.217,162.857 161.458,162.857 150.575 C 162.857 111.282,221.448 101.401,233.715 138.624 C 240.192 158.281,232.564 173.576,210.775 184.617 C 183.192 198.594,174.671 251.429,200.000 251.429 C 209.266 251.429,214.286 243.422,214.286 228.640 C 214.286 214.899,214.362 214.788,229.841 206.052 C 294.777 169.405,256.121 71.294,183.530 88.511 M185.826 280.539 C 178.038 288.897,178.475 298.735,187.013 307.273 C 204.815 325.075,231.342 298.966,214.174 280.539 C 210.749 276.862,204.909 274.286,200.000 274.286 C 195.091 274.286,189.251 276.862,185.826 280.539 " stroke="none" fill="#000000" fill-rule="evenodd"></path></g></svg>